<svg xmlns="http://www.w3.org/2000/svg" xmlns:xlink="http://www.w3.org/1999/xlink" width="500" zoomAndPan="magnify" viewBox="0 0 375 374.999991" height="500" preserveAspectRatio="xMidYMid meet" version="1.0"><defs><g/></defs><rect x="-37.5" width="450" fill="#ffffff" y="-37.499999" height="449.999989" fill-opacity="1"/><rect x="-37.5" width="450" fill="#ffffff" y="-37.499999" height="449.999989" fill-opacity="1"/><rect x="-37.5" width="450" fill="#ffffff" y="-37.499999" height="449.999989" fill-opacity="1"/><g fill="#000000" fill-opacity="1"><g transform="translate(14.34775, 218.66395)"><g><path d="M 9.195312 0 L 17.128906 0 L 17.128906 -26.59375 L 43 -26.59375 L 43 -33.894531 L 17.128906 -33.894531 L 17.128906 -55.710938 L 45.34375 -55.710938 L 45.34375 -63.105469 L 9.195312 -63.105469 Z M 9.195312 0 "/></g></g></g><g fill="#000000" fill-opacity="1"><g transform="translate(71.497966, 218.66395)"><g><path d="M 37.863281 1.171875 C 57.066406 1.171875 70.585938 -12.351562 70.585938 -31.550781 C 70.585938 -50.753906 57.066406 -64.277344 37.863281 -64.277344 C 18.660156 -64.277344 5.230469 -50.753906 5.230469 -31.550781 C 5.230469 -12.351562 18.660156 1.171875 37.863281 1.171875 Z M 13.34375 -31.550781 C 13.34375 -46.246094 23.347656 -56.34375 37.863281 -56.34375 C 52.378906 -56.34375 62.382812 -46.246094 62.382812 -31.550781 C 62.382812 -16.859375 52.378906 -6.761719 37.863281 -6.761719 C 23.347656 -6.761719 13.34375 -16.859375 13.34375 -31.550781 Z M 13.34375 -31.550781 "/></g></g></g><g fill="#000000" fill-opacity="1"><g transform="translate(154.067844, 218.66395)"><g><path d="M 32.816406 1.082031 C 48.050781 1.082031 57.246094 -8.925781 57.246094 -25.691406 L 57.246094 -63.105469 L 49.3125 -63.105469 L 49.3125 -26.234375 C 49.3125 -13.34375 43.632812 -6.671875 32.816406 -6.671875 C 22.085938 -6.671875 16.316406 -13.34375 16.316406 -26.234375 L 16.316406 -63.105469 L 8.472656 -63.105469 L 8.472656 -25.691406 C 8.472656 -8.925781 17.578125 1.082031 32.816406 1.082031 Z M 32.816406 1.082031 "/></g></g></g><g fill="#000000" fill-opacity="1"><g transform="translate(226.632113, 218.66395)"><g><path d="M 9.195312 0 L 17.128906 0 L 17.128906 -22.628906 L 31.011719 -22.628906 L 46.425781 0 L 55.984375 0 L 40.117188 -23.4375 C 49.3125 -25.691406 54.992188 -32.632812 54.992188 -42.820312 C 54.992188 -55.351562 46.335938 -63.105469 33.265625 -63.105469 L 9.195312 -63.105469 Z M 17.128906 -30.199219 L 17.128906 -55.53125 L 32.363281 -55.53125 C 41.558594 -55.53125 46.878906 -50.84375 46.878906 -42.820312 C 46.878906 -34.796875 41.558594 -30.199219 32.363281 -30.199219 Z M 17.128906 -30.199219 "/></g></g></g><g fill="#000000" fill-opacity="1"><g transform="translate(294.859454, 218.66395)"><g><path d="M 0.8125 0 L 16.136719 0 L 20.375 -10.90625 L 45.4375 -10.90625 L 49.671875 0 L 65 0 L 39.9375 -63.105469 L 25.875 -63.105469 Z M 24.070312 -22.175781 L 32.90625 -45.253906 L 41.828125 -22.175781 Z M 24.070312 -22.175781 "/></g></g></g></svg>